<?xml version="1.0" encoding="UTF-8"?>
<svg version="1.1" xmlns="http://www.w3.org/2000/svg" width="692" height="289">
<path d="M0 0 C1.051875 0.721875 2.10375 1.44375 3.1875 2.1875 C11.11630771 10.11630771 16.77032412 21.03484045 17.09765625 32.38671875 C17.06542969 33.24910156 17.03320312 34.11148438 17 35 C18.258125 34.94199219 19.51625 34.88398437 20.8125 34.82421875 C37.16484311 34.30091809 51.72730766 36.42090185 64.140625 47.99609375 C74.10588411 58.34889071 76.50868662 69.55474818 76.2734375 83.44140625 C75.86264387 93.35129408 71.46268156 101.60708397 65 109 C53.02721088 120 53.02721088 120 46 120 C46.176521 120.54301758 46.35304199 121.08603516 46.53491211 121.64550781 C51.8413211 138.13882508 55.97306169 152.5886285 48.4375 169.125 C42.52087519 180.15793322 33.45325121 187.10600458 21.6796875 191.13671875 C9.89396568 193.90173417 -2.01745815 192.67942108 -12.4921875 186.5390625 C-17.72789405 183.15731106 -22.62054085 179.44202285 -27 175 C-28.0621875 175.74765625 -29.124375 176.4953125 -30.21875 177.265625 C-31.64564044 178.26069333 -33.07273472 179.2554694 -34.5 180.25 C-35.19609375 180.74113281 -35.8921875 181.23226562 -36.609375 181.73828125 C-46.20595025 188.40256962 -55.08450658 192.69958389 -67 192 C-67.721875 191.97035156 -68.44375 191.94070312 -69.1875 191.91015625 C-80.07889438 191.13490075 -90.25710012 185.2463247 -97.6875 177.375 C-106.76959878 166.38756581 -109.01864883 154.86188339 -108 141 C-107.03142338 136.82361269 -105.6504145 132.95153007 -104 129 C-103.69191406 128.24203125 -103.38382813 127.4840625 -103.06640625 126.703125 C-102.40601391 125.12323903 -101.70857731 123.55887008 -101 122 C-101.54527344 121.57589844 -102.09054688 121.15179688 -102.65234375 120.71484375 C-104.24636847 119.47504675 -105.83727763 118.23123812 -107.42578125 116.984375 C-109.0461005 115.73532769 -110.68713746 114.51228054 -112.35546875 113.328125 C-121.27893269 106.87742818 -127.86920526 97.94396351 -130 87 C-130.32833915 83.62320785 -130.45049936 80.266572 -130.5 76.875 C-130.51861084 76.03984863 -130.53722168 75.20469727 -130.55639648 74.34423828 C-130.44933717 63.79837649 -125.09059824 54.32671134 -117.89453125 46.796875 C-113.34467976 42.56809737 -108.79840927 39.26552935 -103 37 C-101.77990234 36.45859375 -101.77990234 36.45859375 -100.53515625 35.90625 C-95.24255517 34.54947271 -90.06299624 34.79173268 -84.625 34.875 C-82.94857422 34.88853516 -82.94857422 34.88853516 -81.23828125 34.90234375 C-78.49196538 34.92581654 -75.74609528 34.95865272 -73 35 C-72.63648438 33.88882813 -72.27296875 32.77765625 -71.8984375 31.6328125 C-69.06186197 23.16309134 -66.15874508 15.38028559 -61 8 C-60.13375 6.6696875 -60.13375 6.6696875 -59.25 5.3125 C-42.73806736 -11.65809744 -19.13833069 -13.36590779 0 0 Z M-20 24 C-23.14775613 27.89327732 -23.99809334 29.9904667 -25 35 C-11.8 35 1.4 35 15 35 C11.79250919 25.07010336 11.79250919 25.07010336 4 20 C-4.89775455 16.51220423 -12.37313131 18.71986014 -20 24 Z M-27 37 C-27.31751221 37.91289795 -27.63502441 38.8257959 -27.9621582 39.76635742 C-29.14746488 43.16953949 -30.34010231 46.57011464 -31.53491211 49.9699707 C-32.0499211 51.4386761 -32.56296918 52.90807069 -33.07397461 54.37817383 C-33.81102841 56.49747264 -34.5552196 58.61415026 -35.30078125 60.73046875 C-35.52590897 61.38274948 -35.75103668 62.03503021 -35.98298645 62.70707703 C-38.18139274 68.90519302 -39.95538197 73.08901192 -46.01712036 76.24523926 C-49.49661082 77.56966801 -52.86998447 77.60334305 -56.55859375 77.609375 C-57.34774673 77.62591125 -58.13689972 77.64244751 -58.94996643 77.65948486 C-61.44589232 77.70768363 -63.9412103 77.7292719 -66.4375 77.75 C-68.14000408 77.7781834 -69.84248019 77.80811412 -71.54492188 77.83984375 C-75.69656445 77.91343421 -79.84787513 77.96317969 -84 78 C-81.27190811 80.77449893 -78.57580854 83.46624501 -75.51171875 85.8671875 C-74.89127686 86.35687012 -74.27083496 86.84655273 -73.6315918 87.35107422 C-72.9900415 87.85396973 -72.34849121 88.35686523 -71.6875 88.875 C-70.35338532 89.93651874 -69.02004548 90.99901207 -67.6875 92.0625 C-65.56558252 93.75400826 -63.44111604 95.44190825 -61.3125 97.125 C-57.33786522 100.39822864 -54.88277856 102.70332865 -54 108 C-53.7536895 113.11949256 -54.40558435 117.09825357 -56.00390625 121.95703125 C-56.20604233 122.58606857 -56.40817841 123.2151059 -56.61643982 123.86320496 C-57.25557185 125.8495587 -57.90771668 127.83125551 -58.5625 129.8125 C-59.21982606 131.81187677 -59.8740538 133.81203465 -60.51927185 135.81535339 C-61.10087817 137.62006092 -61.69383319 139.42109935 -62.28735352 141.22192383 C-63.30637298 143.93344968 -63.30637298 143.93344968 -62 146 C-61.00202393 145.29653442 -61.00202393 145.29653442 -59.98388672 144.57885742 C-56.9505247 142.44420087 -53.91282143 140.31580501 -50.875 138.1875 C-49.82828125 137.44951172 -48.7815625 136.71152344 -47.703125 135.95117188 C-46.17558594 134.88286133 -46.17558594 134.88286133 -44.6171875 133.79296875 C-43.68503418 133.1383667 -42.75288086 132.48376465 -41.79248047 131.80932617 C-37.29787525 128.89714579 -33.44016797 126.57269069 -28 126.625 C-26.7934375 126.61339844 -26.7934375 126.61339844 -25.5625 126.6015625 C-18.48363312 127.70223997 -12.9296789 132.86230819 -7.375 137.0625 C-5.69744821 138.32705695 -4.01783547 139.58888561 -2.3359375 140.84765625 C-1.59907715 141.40461182 -0.8622168 141.96156738 -0.10302734 142.53540039 C1.87117964 143.91028635 3.82141123 144.98822671 6 146 C7.10793153 142.6762054 6.92757533 142.04560986 5.85546875 138.8671875 C5.59056641 138.06023437 5.32566406 137.25328125 5.05273438 136.421875 C4.76720703 135.58140625 4.48167969 134.7409375 4.1875 133.875 C-1.61364133 116.56712421 -1.61364133 116.56712421 -0.875 110.3125 C-0.81054688 109.62800781 -0.74609375 108.94351563 -0.6796875 108.23828125 C1.35302419 101.54435136 6.20086001 97.94874422 11.625 94.0625 C12.33269531 93.54324951 13.04039062 93.02399902 13.76953125 92.48901367 C18.57747029 88.97556186 23.44144357 85.54205048 28.375 82.20703125 C28.91125 81.80871094 29.4475 81.41039062 30 81 C30 80.67 30 80.34 30 80 C25.03772678 79.36872019 20.15371737 78.92819415 15.15234375 78.7890625 C13.62577148 78.74652344 13.62577148 78.74652344 12.06835938 78.703125 C9.97739586 78.65094874 7.88621964 78.6067055 5.79492188 78.5703125 C-7.9745407 78.15120394 -7.9745407 78.15120394 -13.04418945 72.87084961 C-15.33042106 69.51498923 -16.58501049 66.12760833 -17.796875 62.29296875 C-18.0353717 61.56757401 -18.27386841 60.84217926 -18.51959229 60.09480286 C-19.27305405 57.79548653 -20.01170401 55.49172515 -20.75 53.1875 C-21.26074497 51.62012506 -21.77245395 50.0530639 -22.28515625 48.48632812 C-23.53461984 44.6610922 -24.77082954 40.83180253 -26 37 C-26.33 37 -26.66 37 -27 37 Z M-91.75 44.8125 C-95.35263127 49.17064997 -96.7378649 52.68447325 -97.375 58.3125 C-96.63715809 65.5679454 -93.64658374 71.39357643 -88 76 C-87.34 76 -86.68 76 -86 76 C-85.8141333 75.43716309 -85.6282666 74.87432617 -85.43676758 74.29443359 C-84.56372505 71.65405166 -83.68848148 69.01440839 -82.8125 66.375 C-82.49659912 65.42254395 -82.18069824 64.47008789 -81.85522461 63.48876953 C-79.63309163 56.81955847 -77.30393787 50.2041292 -74.84765625 43.6171875 C-73.84593864 40.98283246 -73.84593864 40.98283246 -74 38 C-81.862809 37.59330298 -86.26273516 38.89530513 -91.75 44.8125 Z M34 80 C35.42939026 88.609347 37.9897439 96.8263985 40.625 105.125 C41.04995248 106.47641376 41.47443501 107.82797539 41.8984375 109.1796875 C42.92688787 112.45484485 43.96165368 115.72796462 45 119 C47.26251887 119.21471192 47.26251887 119.21471192 49.375 117 C54.3812416 111.27858103 56.74505753 106.15411318 56.37890625 98.453125 C55.34369697 91.75094534 51.98736842 87.30659911 46.7265625 83.1875 C42.46876587 80.25906069 39.12360764 79.76169267 34 80 Z M-99 123 C-101.34321473 129.47829955 -101.77860173 134.9702529 -98.94140625 141.3984375 C-95.31487507 147.58306008 -90.81881471 150.85429129 -84 153 C-78.10261602 154.09174712 -73.752033 152.86716054 -68.53125 150.0703125 C-66.83379381 149.06499221 -66.83379381 149.06499221 -66 147 C-66.6084375 146.56171875 -67.216875 146.1234375 -67.84375 145.671875 C-74.40063707 140.92777435 -80.88931098 136.10148185 -87.33984375 131.21386719 C-91.14870181 128.34015207 -95.00136817 125.60376026 -99 123 Z M8 150 C6.9584375 150.73863281 5.916875 151.47726563 4.84375 152.23828125 C-5.04781643 159.24243519 -14.99476692 166.15927537 -25 173 C-20.3261348 176.87128229 -16.80164768 178.62285512 -10.75 179.4375 C-4.65317869 178.72620418 0.63127374 176.4546881 4.9375 171.9921875 C8.46267777 167.39928762 10.14384762 163.86687944 10.1875 158 C10.20167969 157.13375 10.21585938 156.2675 10.23046875 155.375 C10.16255938 152.73278463 10.16255938 152.73278463 8 150 Z " fill="#FDFEFE" transform="translate(153,58)"/>
<path d="M0 0 C0.33 -1.65 0.66 -3.3 1 -5 C3.31243792 -5.02685412 5.6249627 -5.04632841 7.9375 -5.0625 C9.22527344 -5.07410156 10.51304687 -5.08570312 11.83984375 -5.09765625 C15 -5 15 -5 16 -4 C16.09381302 -2.15881971 16.11743954 -0.31402359 16.11352539 1.52954102 C16.11341209 3.30126427 16.11341209 3.30126427 16.11329651 5.10877991 C16.10813522 6.3941716 16.10297394 7.67956329 16.09765625 9.00390625 C16.0962413 10.31205795 16.09482635 11.62020966 16.09336853 12.96800232 C16.0895441 16.45162859 16.07971446 19.93521339 16.06866455 23.41882324 C16.05844882 26.97126708 16.05387056 30.52371759 16.04882812 34.07617188 C16.03809212 41.05079832 16.0210166 48.02539717 16 55 C12.5309615 55.96470453 9.84547153 55.94772909 6.25 55.5625 C5.26515625 55.46066406 4.2803125 55.35882813 3.265625 55.25390625 C2.51796875 55.17011719 1.7703125 55.08632812 1 55 C0.67 54.01 0.34 53.02 0 52 C-0.66 52.268125 -1.32 52.53625 -2 52.8125 C-2.99 53.204375 -3.98 53.59625 -5 54 C-6.155 54.53625 -7.31 55.0725 -8.5 55.625 C-16.42367992 58.51446222 -24.63916305 57.87277465 -32.4375 54.9375 C-40.37019446 51.2063117 -43.8598929 46.10809846 -47.23828125 38.2109375 C-50.46140302 28.85561995 -49.71297552 19.07438413 -46 10 C-41.95126786 2.48092602 -35.95327889 -2.20162409 -28 -5 C-18.17150697 -7.84509009 -8.36864996 -5.66908546 0 0 Z M0 1 C1 3 1 3 1 3 Z M-30.5 14.4375 C-33.70893308 19.91942735 -33.71525095 26.0197877 -32.25 32.125 C-30.20385006 36.83114486 -28.22633422 39.32898694 -23.6875 41.8125 C-18.1399747 43.5989912 -14.116143 43.72860403 -8.8125 41.3125 C-4.28283417 38.83698495 -1.64663626 35.93990878 0 31 C0.75913493 24.28707822 0.47900936 19.13209771 -3.58984375 13.58984375 C-7.25427622 9.45847528 -11.22644662 8.30983575 -16.58984375 7.87109375 C-22.15903101 8.16895952 -26.56779544 10.60360055 -30.5 14.4375 Z " fill="#FCFEFE" transform="translate(623,121)"/>
<path d="M0 0 C0.33 -1.32 0.66 -2.64 1 -4 C5.95 -4 10.9 -4 16 -4 C16 15.47 16 34.94 16 55 C11.05 55 6.1 55 1 55 C1 53.68 1 52.36 1 51 C0.22398437 51.433125 -0.55203125 51.86625 -1.3515625 52.3125 C-10.58705386 57.07351702 -18.5529638 58.89944648 -28.89453125 56.26171875 C-38.08367888 52.91394832 -42.6989754 48.1678225 -46.796875 39.37890625 C-50.24044833 29.7078318 -49.77055677 19.50235552 -46 10 C-42.30081189 3.00345251 -36.29025843 -1.8920043 -28.9609375 -4.8125 C-18.71469161 -7.75166217 -8.80162317 -5.96238989 0 0 Z M-28 12 C-32.09319011 17.01415788 -33.37019556 21.2513806 -33.27734375 27.5859375 C-32.65459846 33.0064528 -30.32295243 36.77154417 -26.375 40.4375 C-20.54295322 43.13752166 -15.38757121 43.6653887 -9.1875 41.9375 C-4.97304232 39.37577082 -2.23555833 36.47111665 0 32 C0.4914074 26.16755803 0.83075678 20.82127447 -1.625 15.4375 C-6.15664349 10.78660274 -10.12934579 8.28971169 -16.625 7.83984375 C-20.92556225 8.12984877 -24.44295543 9.6048758 -28 12 Z " fill="#FCFEFE" transform="translate(309,121)"/>
<path d="M0 0 C7.02764892 6.60850485 8.86287116 14.31674581 9.6875 23.75 C9.9419935 32.50174864 6.31433156 40.22882053 0.4375 46.625 C-6.33724185 52.89681342 -14.81078931 55.10000481 -23.8515625 54.96484375 C-32.11716009 54.24324396 -40.45241463 51.09150192 -46.03515625 44.8125 C-51.23983203 37.65127534 -54.38552008 28.64073777 -53.3125 19.75 C-51.23874447 9.73336952 -47.69288027 2.71251799 -39.5546875 -3.6171875 C-27.0392948 -11.59211215 -11.10365429 -8.95653882 0 0 Z M-33.3125 10.75 C-36.73944492 15.2415284 -37.98598608 19.90171858 -37.6953125 25.51171875 C-36.78704163 30.82232291 -34.57685042 34.5164874 -30.75 38.25 C-25.86943237 40.37970224 -21.55741229 40.52268797 -16.3125 39.75 C-11.15543526 37.26355807 -8.58093265 34.20936178 -6.625 28.875 C-5.63053675 22.11264989 -6.50899979 17.37575594 -10.3125 11.75 C-14.86852184 7.51940829 -17.84059992 6.37278392 -23.9296875 6.48046875 C-27.77161301 6.91504721 -30.46635013 8.13242693 -33.3125 10.75 Z " fill="#FBFEFE" transform="translate(468.3125,123.25)"/>
<path d="M0 0 C1.05960937 0.00676758 1.05960937 0.00676758 2.140625 0.01367188 C3.88545275 0.02546125 5.630237 0.04339676 7.375 0.0625 C12.40203922 10.89202599 16.87896562 21.79902057 20.84765625 33.06298828 C21.16476562 33.96130371 21.481875 34.85961914 21.80859375 35.78515625 C22.08759521 36.58703369 22.36659668 37.38891113 22.65405273 38.21508789 C23.2269775 40.04836381 23.2269775 40.04836381 24.375 41.0625 C24.77589844 39.93457031 25.17679688 38.80664062 25.58984375 37.64453125 C28.89220052 28.46299365 32.40291227 19.4057764 36.25 10.4375 C36.83962524 9.0604187 36.83962524 9.0604187 37.44116211 7.65551758 C40.2395388 1.1979612 40.2395388 1.1979612 41.375 0.0625 C44.07154854 -0.01069621 46.74191458 -0.02992537 49.4375 0 C50.19611328 0.00451172 50.95472656 0.00902344 51.73632812 0.01367188 C53.61591871 0.0254932 55.49546899 0.04342922 57.375 0.0625 C56.64951825 5.19344337 54.62392746 9.7947775 52.6875 14.5625 C52.1462146 15.90598511 52.1462146 15.90598511 51.59399414 17.27661133 C49.19096122 23.19074532 46.6177467 28.99685669 43.8828125 34.765625 C41.71661271 39.50208258 39.76432732 44.32114523 37.82202148 49.15307617 C37.54688721 49.83345947 37.27175293 50.51384277 36.98828125 51.21484375 C36.74891846 51.81288818 36.50955566 52.41093262 36.26293945 53.02709961 C35.07315961 55.75440084 33.70569516 58.40110968 32.375 61.0625 C26.765 61.0625 21.155 61.0625 15.375 61.0625 C12.40818966 54.12647498 9.44340863 47.18958924 6.48214149 40.25119591 C5.10686107 37.02906821 3.73071285 33.80731711 2.35253906 30.58642578 C0.76625094 26.8790489 -0.81618523 23.17003864 -2.3984375 19.4609375 C-2.89121185 18.31072113 -3.38398621 17.16050476 -3.89169312 15.97543335 C-4.35201935 14.89476593 -4.81234558 13.81409851 -5.28662109 12.70068359 C-5.6907724 11.75470306 -6.09492371 10.80872253 -6.51132202 9.83407593 C-7.67270284 6.94378341 -8.66912908 4.02645487 -9.625 1.0625 C-6.55966836 -0.47016582 -3.35745728 -0.04026471 0 0 Z " fill="#FCFEFE" transform="translate(488.625,115.9375)"/>
<path d="M0 0 C1.6694607 1.17530033 3.28640495 2.42460336 4.890625 3.6875 C3.52692201 6.67970268 1.94154417 8.97776529 -0.234375 11.4375 C-0.77320313 12.05109375 -1.31203125 12.6646875 -1.8671875 13.296875 C-2.27710938 13.75578125 -2.68703125 14.2146875 -3.109375 14.6875 C-5.29131876 14.21994062 -7.0811141 13.70256493 -9.05859375 12.6484375 C-13.40657407 10.61109815 -18.62267216 10.98708653 -23.17578125 12.26953125 C-27.72586855 14.42173237 -29.74912862 17.6205612 -31.515625 22.25 C-32.86189265 27.77678299 -31.94539679 32.07517227 -29.359375 37.0625 C-26.29979612 40.63200869 -24.34460242 42.44141992 -19.5546875 42.96875 C-13.81568215 43.15538432 -10.18073277 42.53240802 -5.109375 39.6875 C-1.24802889 40.00596153 0.54737192 42.02708427 3.140625 44.75 C4.20023437 45.85021484 4.20023437 45.85021484 5.28125 46.97265625 C5.81234375 47.53855469 6.3434375 48.10445312 6.890625 48.6875 C1.46164688 54.61002158 -4.21280556 58.3323386 -12.39453125 58.92578125 C-22.92278511 59.13264456 -32.60563152 58.07323905 -40.609375 50.53125 C-48.11792794 41.30198701 -48.92527762 31.12179243 -48.109375 19.6875 C-46.50879592 12.46561006 -42.7371374 6.47482151 -37.109375 1.6875 C-25.70524833 -5.37638124 -11.86112616 -7.38025628 0 0 Z " fill="#FBFEFE" transform="translate(406.109375,119.3125)"/>
<path d="M0 0 C1.1653125 0.00515625 2.330625 0.0103125 3.53125 0.015625 C4.6965625 0.01046875 5.861875 0.0053125 7.0625 0 C10.03125 0.265625 10.03125 0.265625 12.03125 2.265625 C12.18966794 4.91824823 12.22351818 7.46151197 12.16650391 10.11181641 C12.15704239 10.92165482 12.14758087 11.73149323 12.13783264 12.56587219 C12.10408214 15.24987008 12.05598722 17.9334129 12.0078125 20.6171875 C11.98165286 22.47519736 11.95638526 24.33321998 11.93197632 26.19125366 C11.86525191 31.08720003 11.78637512 35.98287892 11.70501709 40.87860107 C11.62416852 45.87208775 11.55474395 50.86573159 11.484375 55.859375 C11.34455155 65.66164675 11.19189709 75.46367397 11.03125 85.265625 C8.5524287 85.45951596 6.07344069 85.64602623 3.59375 85.828125 C2.53317383 85.91223633 2.53317383 85.91223633 1.45117188 85.99804688 C-0.35302837 86.12753493 -2.16106952 86.20084108 -3.96875 86.265625 C-5.71801195 84.51636305 -5.10111718 82.22768408 -5.11538696 79.89613342 C-5.11493378 79.12675949 -5.11448059 78.35738556 -5.11401367 77.56469727 C-5.11737228 76.75821747 -5.1207309 75.95173767 -5.12419128 75.12081909 C-5.13373015 72.4412077 -5.13564586 69.76165859 -5.13671875 67.08203125 C-5.13992928 65.22737095 -5.14329319 63.3727109 -5.14680481 61.51805115 C-5.15280343 57.62490247 -5.15464396 53.73177602 -5.15405273 49.83862305 C-5.15395107 44.84023822 -5.16760475 39.84199531 -5.18482494 34.84364414 C-5.19592182 31.01160523 -5.19797266 27.17960087 -5.19744301 23.34754753 C-5.19862657 21.50428719 -5.20306924 19.66102606 -5.21077538 17.81778145 C-5.22052886 15.24373448 -5.21771576 12.66999882 -5.21166992 10.09594727 C-5.21728943 9.32859756 -5.22290894 8.56124786 -5.22869873 7.77064514 C-5.18489577 0.46391173 -5.18489577 0.46391173 0 0 Z " fill="#FDFEFE" transform="translate(339.96875,90.734375)"/>
<path d="M0 0 C1.93166016 0.01740234 1.93166016 0.01740234 3.90234375 0.03515625 C5.19269531 0.04417969 6.48304688 0.05320312 7.8125 0.0625 C8.81152344 0.07410156 9.81054688 0.08570312 10.83984375 0.09765625 C12.15841923 2.73480721 11.95976079 4.69598265 11.95336914 7.64892578 C11.95329361 8.80997833 11.95321808 9.97103088 11.95314026 11.16726685 C11.94797897 12.42562347 11.94281769 13.6839801 11.9375 14.98046875 C11.93608505 16.26500946 11.9346701 17.54955017 11.93321228 18.87301636 C11.92939286 22.28922467 11.91956748 25.70539051 11.9085083 29.12158203 C11.89828182 32.60709051 11.89371201 36.09260585 11.88867188 39.578125 C11.8779447 46.41798796 11.86035254 53.2578157 11.83984375 60.09765625 C6.55984375 60.09765625 1.27984375 60.09765625 -4.16015625 60.09765625 C-4.18271148 52.42228648 -4.20107378 44.74692896 -4.21196842 37.07153416 C-4.2171962 33.50788203 -4.22429194 29.94425368 -4.2355957 26.38061523 C-4.24849801 22.28759528 -4.25338531 18.19460045 -4.2578125 14.1015625 C-4.26297379 12.81617081 -4.26813507 11.53077911 -4.27345276 10.20643616 C-4.27352829 9.02528732 -4.27360382 7.84413849 -4.27368164 6.62719727 C-4.27590225 5.58128922 -4.27812286 4.53538116 -4.28041077 3.45777893 C-4.09528752 -0.1754615 -3.72589703 0.11513897 0 0 Z " fill="#FDFEFE" transform="translate(555.16015625,115.90234375)"/>
<path d="M0 0 C2.4375 1 2.4375 1 4 3 C5.05657725 7.36718597 5.50815925 9.70137079 3.875 13.875 C1.64369144 16.40381637 0.2826656 17.2365894 -3 18 C-6.4885109 17.8576118 -8.45608222 17.35784064 -11.375 15.4375 C-13.26822281 12.59766578 -13.63873382 10.37814825 -13.44140625 6.97265625 C-11.81247002 -0.30710302 -6.19168976 -0.78624632 0 0 Z " fill="#FAFEFE" transform="translate(563,92)"/>
<path d="M0 0 C7.51953125 -0.390625 7.51953125 -0.390625 10 0 C11.82421875 1.79296875 11.82421875 1.79296875 13 4 C13 7.5625 13 7.5625 12 11 C7.93389602 14.7073301 5.90897113 14 0 14 C0 9.38 0 4.76 0 0 Z M4 3 C4 5.31 4 7.62 4 10 C5.32 9.67 6.64 9.34 8 9 C8.33 7.35 8.66 5.7 9 4 C7.35 3.67 5.7 3.34 4 3 Z " fill="#F7FEFE" transform="translate(360,194)"/>
<path d="M0 0 C3.96 0 7.92 0 12 0 C11.67 0.99 11.34 1.98 11 3 C8.69 3 6.38 3 4 3 C4 3.66 4 4.32 4 5 C4.598125 4.814375 5.19625 4.62875 5.8125 4.4375 C8 4 8 4 11 5 C11 5.99 11 6.98 11 8 C10.01 8.33 9.02 8.66 8 9 C8.99 9.33 9.98 9.66 11 10 C11 11.32 11 12.64 11 14 C9.35425434 14.02688151 7.70838587 14.04634123 6.0625 14.0625 C5.14597656 14.07410156 4.22945313 14.08570313 3.28515625 14.09765625 C1 14 1 14 0 13 C-0.07258946 10.81360547 -0.08373783 8.62499611 -0.0625 6.4375 C-0.05347656 5.23996094 -0.04445313 4.04242188 -0.03515625 2.80859375 C-0.02355469 1.88175781 -0.01195312 0.95492187 0 0 Z M4 8 C4 8.66 4 9.32 4 10 C4.66 10 5.32 10 6 10 C6 9.34 6 8.68 6 8 C5.34 8 4.68 8 4 8 Z " fill="#F8FDFE" transform="translate(502,194)"/>
<path d="M0 0 C3.63 0 7.26 0 11 0 C11 0.99 11 1.98 11 3 C8.36 3 5.72 3 3 3 C3 3.66 3 4.32 3 5 C3.99 4.67 4.98 4.34 6 4 C8.6875 4.9375 8.6875 4.9375 11 6 C11 6.66 11 7.32 11 8 C10.01 8.33 9.02 8.66 8 9 C8.99 9.33 9.98 9.66 11 10 C11 11.32 11 12.64 11 14 C7.37 14 3.74 14 0 14 C0 9.38 0 4.76 0 0 Z " fill="#F7FEFE" transform="translate(314,194)"/>
<path d="M0 0 C3.63 0 7.26 0 11 0 C11.92844389 4.33273814 11.92844389 7.66726186 11 12 C11.66 12.33 12.32 12.66 13 13 C11.375 13.8125 11.375 13.8125 9 14 C6.75390165 12.53181864 4.97621323 10.84147142 3 9 C3 10.65 3 12.3 3 14 C2.01 14 1.02 14 0 14 C0 9.38 0 4.76 0 0 Z M3 3 C3 3.99 3 4.98 3 6 C4.32 6 5.64 6 7 6 C7.33 5.01 7.66 4.02 8 3 C6.35 3 4.7 3 3 3 Z " fill="#F8FDFE" transform="translate(585,194)"/>
<path d="M0 0 C4.36689189 1.42398649 4.36689189 1.42398649 5.875 3.9375 C6.36942439 7.82226306 6.40791213 10.04931312 4.375 13.4375 C0.51472346 15.75366593 -1.78858695 14.98663219 -6.125 13.9375 C-8.61336965 10.20494552 -8.66726552 8.35309065 -8.125 3.9375 C-5.45043116 0.79094842 -4.15592269 -0.08311845 0 0 Z M-4.125 3.9375 C-4.89456136 6.28283951 -4.89456136 6.28283951 -5.125 8.9375 C-3.79121425 10.7729799 -3.79121425 10.7729799 -2.125 11.9375 C-1.135 11.6075 -0.145 11.2775 0.875 10.9375 C2.09369929 8.43302484 2.09369929 8.43302484 2.875 5.9375 C1.03616119 3.65021266 1.03616119 3.65021266 -1.75 3.8125 C-2.925625 3.874375 -2.925625 3.874375 -4.125 3.9375 Z " fill="#F7FEFE" transform="translate(405.125,193.0625)"/>
<path d="M0 0 C0.99 0.33 1.98 0.66 3 1 C3 5.29 3 9.58 3 14 C1.68 14.33 0.36 14.66 -1 15 C-1 13.02 -1 11.04 -1 9 C-2.65 9 -4.3 9 -6 9 C-6 10.65 -6 12.3 -6 14 C-7.32 14 -8.64 14 -10 14 C-10 9.71 -10 5.42 -10 1 C-8.68 1 -7.36 1 -6 1 C-6 2.65 -6 4.3 -6 6 C-4.35 6 -2.7 6 -1 6 C-1.020625 5.195625 -1.04125 4.39125 -1.0625 3.5625 C-1 1 -1 1 0 0 Z " fill="#F7FEFD" transform="translate(300,193)"/>
<path d="M0 0 C0.99 0.33 1.98 0.66 3 1 C3.35719471 5.55423254 3.513696 8.972608 1.4375 13.125 C-1 15 -1 15 -4.625 15 C-8 14 -8 14 -10 11 C-10.1953125 8.51953125 -10.1953125 8.51953125 -10.125 5.8125 C-10.10695313 4.91144531 -10.08890625 4.01039063 -10.0703125 3.08203125 C-10.04710937 2.39496094 -10.02390625 1.70789063 -10 1 C-8.68 1 -7.36 1 -6 1 C-6.03480469 1.62648437 -6.06960938 2.25296875 -6.10546875 2.8984375 C-6.13253906 3.71570313 -6.15960937 4.53296875 -6.1875 5.375 C-6.22230469 6.18710938 -6.25710938 6.99921875 -6.29296875 7.8359375 C-6.19628906 8.55007812 -6.09960938 9.26421875 -6 10 C-5.01 10.66 -4.02 11.32 -3 12 C-3.03480469 11.30132812 -3.06960938 10.60265625 -3.10546875 9.8828125 C-3.13253906 8.97273437 -3.15960937 8.06265625 -3.1875 7.125 C-3.22230469 6.22007812 -3.25710938 5.31515625 -3.29296875 4.3828125 C-3.19628906 3.59648437 -3.09960938 2.81015625 -3 2 C-2.01 1.34 -1.02 0.68 0 0 Z M-2 3 C-1 5 -1 5 -1 5 Z " fill="#F8FDFE" transform="translate(571,193)"/>
<path d="M0 0 C1.69141656 0.08963062 3.37959602 0.24577676 5.0625 0.4375 C6.44115234 0.59025391 6.44115234 0.59025391 7.84765625 0.74609375 C8.55792969 0.82988281 9.26820313 0.91367188 10 1 C9.67 1.99 9.34 2.98 9 4 C6.69 4 4.38 4 2 4 C2 4.66 2 5.32 2 6 C4.31 6 6.62 6 9 6 C9 6.99 9 7.98 9 9 C6.69 9 4.38 9 2 9 C2 9.66 2 10.32 2 11 C2.99 10.67 3.98 10.34 5 10 C7.1875 10.4375 7.1875 10.4375 9 11 C9 12.32 9 13.64 9 15 C5.7 15 2.4 15 -1 15 C-1.02685412 12.68756208 -1.04632841 10.3750373 -1.0625 8.0625 C-1.07410156 6.77472656 -1.08570313 5.48695313 -1.09765625 4.16015625 C-1 1 -1 1 0 0 Z " fill="#F7FDFD" transform="translate(633,193)"/>
<path d="M0 0 C2.91704415 1.04714406 3.88969775 1.81190563 5.484375 4.53125 C5.90203125 5.5109375 6.3196875 6.490625 6.75 7.5 C7.39195312 8.96953125 7.39195312 8.96953125 8.046875 10.46875 C9 13 9 13 9 15 C7.68 15 6.36 15 5 15 C4.67 14.34 4.34 13.68 4 13 C2.02 13 0.04 13 -2 13 C-2.33 13.66 -2.66 14.32 -3 15 C-4.32 14.67 -5.64 14.34 -7 14 C-6.02352161 11.85294201 -5.0437441 9.70738416 -4.0625 7.5625 C-3.51722656 6.36753906 -2.97195313 5.17257813 -2.41015625 3.94140625 C-1 1 -1 1 0 0 Z M1 6 C1 6.66 1 7.32 1 8 C0.01 8.495 0.01 8.495 -1 9 C0.32 8.67 1.64 8.34 3 8 C2.34 7.34 1.68 6.68 1 6 Z " fill="#F7FEFD" transform="translate(341,193)"/>
<path d="M0 0 C1.828125 0.1640625 1.828125 0.1640625 4 1 C5.484375 3.3984375 5.484375 3.3984375 6.75 6.375 C7.39195312 7.84066406 7.39195312 7.84066406 8.046875 9.3359375 C9 12 9 12 9 15 C7.68 14.67 6.36 14.34 5 14 C5 13.34 5 12.68 5 12 C2.69 12 0.38 12 -2 12 C-2.33 12.99 -2.66 13.98 -3 15 C-3.99 15 -4.98 15 -6 15 C-5.39644592 11.14974121 -4.23227397 8.13898841 -2.4375 4.6875 C-1.98246094 3.80449219 -1.52742188 2.92148438 -1.05859375 2.01171875 C-0.53458984 1.01591797 -0.53458984 1.01591797 0 0 Z M1 5 C0.67 6.32 0.34 7.64 0 9 C0.99 8.67 1.98 8.34 3 8 C2.34 7.01 1.68 6.02 1 5 Z " fill="#F6FEFE" transform="translate(271,193)"/>
<path d="M0 0 C1.32 0 2.64 0 4 0 C3.67 1.65 3.34 3.3 3 5 C4.98 5 6.96 5 9 5 C9 3.35 9 1.7 9 0 C9.99 0 10.98 0 12 0 C12 4.62 12 9.24 12 14 C10.68 14 9.36 14 8 14 C8.33 12.02 8.66 10.04 9 8 C7.02 8 5.04 8 3 8 C3 9.98 3 11.96 3 14 C2.01 14 1.02 14 0 14 C0 9.38 0 4.76 0 0 Z " fill="#F6FEFE" transform="translate(479,194)"/>
<path d="M0 0 C1.98 0.495 1.98 0.495 4 1 C4.12375 1.804375 4.2475 2.60875 4.375 3.4375 C4.684375 4.7059375 4.684375 4.7059375 5 6 C5.66 6.33 6.32 6.66 7 7 C7.66 5.02 8.32 3.04 9 1 C10.32 1 11.64 1 13 1 C11.45730076 5.72065967 9.92205381 10.41664092 8 15 C6.68 15 5.36 15 4 15 C3.13419713 13.06767179 2.28270059 11.12892806 1.4375 9.1875 C0.96183594 8.10855469 0.48617187 7.02960938 -0.00390625 5.91796875 C-1 3 -1 3 0 0 Z " fill="#F9FDFE" transform="translate(608,193)"/>
<path d="M0 0 C0 0.99 0 1.98 0 3 C-1.65 3.33 -3.3 3.66 -5 4 C-2.525 4.99 -2.525 4.99 0 6 C-0.33 6.99 -0.66 7.98 -1 9 C-2.98 9 -4.96 9 -7 9 C-7.33 10.65 -7.66 12.3 -8 14 C-8.99 14 -9.98 14 -11 14 C-11 9.38 -11 4.76 -11 0 C-6.80104745 -1.04973814 -4.20594226 -0.72795155 0 0 Z " fill="#F9FEFE" transform="translate(433,194)"/>
<path d="M0 0 C-0.33 1.32 -0.66 2.64 -1 4 C-2.98 4 -4.96 4 -7 4 C-7 5.65 -7 7.3 -7 9 C-4 10.33333333 -4 10.33333333 -1 9 C-0.67 10.32 -0.34 11.64 0 13 C-5.18817204 14.03763441 -5.18817204 14.03763441 -8 14 C-10.55687201 12.22985784 -11.59841577 10.82994074 -12.9375 8.0625 C-13.0303453 4.99860514 -11.78725916 3.42556601 -10 1 C-6.1496895 -1.56687367 -4.41430237 -0.83288724 0 0 Z " fill="#F5FEFE" transform="translate(550,194)"/>
<path d="M0 0 C4.29 0 8.58 0 13 0 C12.67 0.99 12.34 1.98 12 3 C10.68 3 9.36 3 8 3 C8 6.63 8 10.26 8 14 C6.68 13.67 5.36 13.34 4 13 C4.33 9.7 4.66 6.4 5 3 C3.35 3 1.7 3 0 3 C0 2.01 0 1.02 0 0 Z " fill="#F4FEFE" transform="translate(456,194)"/>
<path d="M0 0 C0.66 0.33 1.32 0.66 2 1 C1.625 3.9375 1.625 3.9375 1 7 C0.01 7.495 0.01 7.495 -1 8 C-1.93065133 5.39417629 -2.14917407 4.35801776 -1.0625 1.75 C-0.711875 1.1725 -0.36125 0.595 0 0 Z " fill="#EAFEFD" transform="translate(52,181)"/>
</svg>
